<svg width="17" height="12" viewBox="0 0 17 12" fill="none" xmlns="http://www.w3.org/2000/svg">
<path fill-rule="evenodd" clip-rule="evenodd" d="M13.5273 8.96982C13.7737 8.82034 14.0163 8.65917 14.2544 8.48632C15.3044 7.72434 17 5.79539 17 5.3628C17 4.98964 15.05 2.99403 13.9391 2.23037C12.2675 1.08141 10.6249 0.486738 8.92347 0.414528C8.11829 0.380359 7.13005 0.426143 6.72727 0.516362C5.88073 0.705873 4.76564 1.18844 3.74334 1.79495L1.29568 0L0.704318 0.806405L2.84861 2.37889C1.68782 3.23567 -0.00411263 5.00302 7.51067e-06 5.38048C0.00473052 5.8171 1.80476 7.84923 2.82002 8.56425C5.78775 10.6542 9.40181 10.9613 12.5495 9.49288L15.7043 11.8064L16.2957 11L13.5273 8.96982ZM8.92718 6.8365C8.78546 6.88038 8.64088 6.90462 8.49859 6.90462C7.68585 6.90462 6.7983 6.11385 6.7983 5.38974C6.7983 5.35258 6.80015 5.31582 6.80387 5.27941L4.92949 3.90486C4.45198 4.76889 4.36328 5.80795 4.88945 6.82046C5.98807 8.93451 8.81074 9.53572 10.8003 8.2101L8.92718 6.8365ZM11.5768 7.53952C13.1565 5.77148 12.4942 3.13558 10.1061 2.16893C8.38496 1.4723 6.60214 2.01382 5.52981 3.10503L7.30586 4.40747C7.32042 4.39394 7.33531 4.38041 7.35052 4.36685C7.72741 4.03106 8.09203 3.87485 8.49859 3.87485C9.31132 3.87485 10.1989 4.66562 10.1989 5.38974C10.1989 5.68536 10.0509 5.99209 9.82057 6.25158L11.5768 7.53952Z" fill="black"/>
</svg>
 