<svg width="17" height="10" viewBox="0 0 17 10" fill="none" xmlns="http://www.w3.org/2000/svg">
<path fill-rule="evenodd" clip-rule="evenodd" d="M6.72727 0.11316C5.67914 0.347798 4.21935 1.03168 3.03369 1.84383C1.87769 2.63527 -0.00433766 4.5792 7.51067e-06 4.97728C0.00473052 5.4139 1.80476 7.44603 2.82002 8.16105C6.34112 10.6407 10.7721 10.6106 14.2544 8.08312C15.3044 7.32113 17 5.39218 17 4.9596C17 4.58644 15.05 2.59083 13.9391 1.82716C12.2675 0.67821 10.6249 0.0835352 8.92347 0.0113259C8.11829 -0.0228431 7.13005 0.0229401 6.72727 0.11316ZM10.1061 1.76573C12.6397 2.7913 13.2309 5.69583 11.2629 7.44939C9.27599 9.21945 6.07644 8.70136 4.88945 6.41725C3.39509 3.54167 6.86027 0.451988 10.1061 1.76573ZM7.35052 3.96365C6.97362 4.29945 6.7983 4.62431 6.7983 4.98653C6.7983 5.71065 7.68585 6.50141 8.49859 6.50141C9.31132 6.50141 10.1989 5.71065 10.1989 4.98653C10.1989 4.26242 9.31132 3.47165 8.49859 3.47165C8.09203 3.47165 7.72741 3.62785 7.35052 3.96365Z" fill="#3D3D3D"/>
</svg>
