<svg width="14" height="19" viewBox="0 0 14 19" fill="none" xmlns="http://www.w3.org/2000/svg">
<path d="M1.5835 18.3333C1.23627 18.3333 0.941135 18.2118 0.698079 17.9687C0.455024 17.7257 0.333496 17.4306 0.333496 17.0833V8.04167C0.333496 7.69444 0.455024 7.3993 0.698079 7.15625C0.941135 6.91319 1.23627 6.79167 1.5835 6.79167H3.04183V4.79167C3.04183 3.69444 3.42725 2.76042 4.19808 1.98958C4.96891 1.21875 5.90294 0.833333 7.00016 0.833333C8.09738 0.833333 9.03141 1.21875 9.80225 1.98958C10.5731 2.76042 10.9585 3.69444 10.9585 4.79167V6.79167H12.4168C12.7641 6.79167 13.0592 6.91319 13.3022 7.15625C13.5453 7.3993 13.6668 7.69444 13.6668 8.04167V17.0833C13.6668 17.4306 13.5453 17.7257 13.3022 17.9687C13.0592 18.2118 12.7641 18.3333 12.4168 18.3333H1.5835ZM1.5835 17.0833H12.4168V8.04167H1.5835V17.0833ZM7.00016 14.1667C7.44461 14.1667 7.82308 14.0139 8.13558 13.7083C8.44808 13.4028 8.60433 13.0347 8.60433 12.6042C8.60433 12.1875 8.44808 11.809 8.13558 11.4687C7.82308 11.1285 7.44461 10.9583 7.00016 10.9583C6.55572 10.9583 6.17725 11.1285 5.86475 11.4687C5.55225 11.809 5.396 12.1875 5.396 12.6042C5.396 13.0347 5.55225 13.4028 5.86475 13.7083C6.17725 14.0139 6.55572 14.1667 7.00016 14.1667ZM4.29183 6.79167H9.7085V4.79167C9.7085 4.04167 9.44461 3.40278 8.91683 2.875C8.38905 2.34722 7.75016 2.08333 7.00016 2.08333C6.25016 2.08333 5.61127 2.34722 5.0835 2.875C4.55572 3.40278 4.29183 4.04167 4.29183 4.79167V6.79167ZM1.5835 17.0833V8.04167V17.0833Z" fill="#3D3D3D"/>
</svg>
